<svg width="178" height="178" viewBox="0 0 178 178" fill="none" xmlns="http://www.w3.org/2000/svg">
<circle cx="89" cy="89" r="89" fill="black"/>
<path d="M88.6935 26C75.3779 26 65.5087 30.073 59.2426 36.3392C52.9764 42.6053 50.7833 50.438 50 56.3909L65.6654 58.4274C66.292 54.511 67.5452 50.5947 70.5217 47.6182C73.4981 44.6418 78.1977 41.6654 88.6935 41.6654C99.0327 41.6654 104.672 44.1719 107.805 46.9916C110.938 49.8114 112.192 53.2578 112.192 57.3308C112.192 70.3331 106.865 73.9361 99.0327 80.8289C91.2 87.7216 80.8608 97.7475 80.8608 116.076V119.992H96.5262V116.076C96.5262 103.074 101.382 99.4707 109.215 92.5779C117.048 85.6851 127.857 75.6593 127.857 57.3308C127.857 49.8114 125.194 41.3521 118.614 35.2426C111.878 29.1331 101.852 26 88.6935 26ZM80.8608 135.658V151.323H96.5262V135.658H80.8608Z" fill="#EDE6ED"/>
</svg>
