<svg width="234" height="234" viewBox="0 0 234 234" fill="none" xmlns="http://www.w3.org/2000/svg">
<mask id="mask0_8_75" style="mask-type:alpha" maskUnits="userSpaceOnUse" x="0" y="0" width="234" height="234">
<circle cx="117" cy="117" r="117" fill="white"/>
</mask>
<g mask="url(#mask0_8_75)">
<circle cx="117" cy="117" r="117" fill="white"/>
<path d="M8.5 64H160.518C164.812 64 169.102 65.0156 172.619 67.4768C195.998 83.8334 190.525 105.186 170.478 115.896C168.276 117.073 165.778 117.553 163.282 117.553H143.5" stroke="#172640" stroke-width="11"/>
<path d="M141.751 136.695V96.463C141.751 95.5921 140.715 95.1374 140.074 95.7271L117.809 116.211C117.594 116.409 117.594 116.749 117.809 116.947L140.074 137.431C140.715 138.02 141.751 137.566 141.751 136.695Z" fill="#172640" stroke="#172640" stroke-width="5"/>
<path d="M82.3566 116.579C82.3566 113.352 84.9722 110.737 88.1987 110.737H99.8829C103.109 110.737 105.725 113.352 105.725 116.579V116.579C105.725 119.805 103.109 122.421 99.8829 122.421H88.1987C84.9722 122.421 82.3566 119.805 82.3566 116.579V116.579Z" fill="#172640"/>
<path d="M49.1584 122.248C48.5636 120.275 49.1415 118.111 50.7431 116.814C56.6731 112.013 61.4461 110.522 69.1058 111.277C71.1394 111.478 72.7976 112.954 73.3875 114.91V114.91C74.5106 118.636 71.3616 122.176 67.4791 122.433C64.0449 122.661 61.1538 123.553 58.2123 125.247C54.8424 127.187 50.2809 125.971 49.1584 122.248V122.248Z" fill="#172640"/>
<path d="M40.2367 134.105C44.2849 134.105 47.3575 137.586 47.5266 141.631C47.8587 149.573 50.4647 153.211 55.0587 158.097C58.0837 161.315 57.4157 166.427 53.6408 168.719V168.719C51.2553 170.168 48.1997 170.104 46.1245 168.238C39.8432 162.589 33.8194 153.515 33.7604 140.2C33.745 136.714 36.7506 134.105 40.2367 134.105V134.105Z" fill="#172640"/>
<path d="M66.7776 169.158C66.7776 165.931 69.3932 163.316 72.6197 163.316H99.8829C103.109 163.316 105.725 165.931 105.725 169.158V169.158C105.725 172.384 103.109 175 99.8829 175H72.6197C69.3932 175 66.7776 172.384 66.7776 169.158V169.158Z" fill="#172640"/>
<path d="M117.409 169.158C117.409 165.931 120.025 163.316 123.251 163.316H150.514C153.741 163.316 156.357 165.931 156.357 169.158V169.158C156.357 172.384 153.741 175 150.514 175H123.251C120.025 175 117.409 172.384 117.409 169.158V169.158Z" fill="#172640"/>
<path d="M166.093 169.158C166.093 165.931 168.709 163.316 171.936 163.316H187.514C190.741 163.316 193.357 165.931 193.357 169.158V169.158C193.357 172.384 190.741 175 187.514 175H171.935C168.709 175 166.093 172.384 166.093 169.158V169.158Z" fill="#172640"/>
<path d="M201.093 169.158C201.093 165.931 203.709 163.316 206.935 163.316H222.514C225.741 163.316 228.357 165.931 228.357 169.158V169.158C228.357 172.384 225.741 175 222.514 175H206.935C203.709 175 201.093 172.384 201.093 169.158V169.158Z" fill="#172640"/>
</g>
</svg>
